<?xml version="1.0" encoding="iso-8859-1"?>
<!-- Generator: Adobe Illustrator 19.0.0, SVG Export Plug-In . SVG Version: 6.00 Build 0)  -->
<svg version="1.1" id="Capa_1" xmlns="http://www.w3.org/2000/svg" xmlns:xlink="http://www.w3.org/1999/xlink" x="0px" y="0px"
	 viewBox="0 0 512 512" style="enable-background:new 0 0 512 512;" xml:space="preserve">
<circle style="fill:#5FBDFF;" cx="256" cy="256" r="256"/>
<path style="fill:#50A0DD;" d="M20.604,256c0-137.933,109.092-250.367,245.698-255.776C262.883,0.089,259.452,0,256,0
	C114.615,0,0,114.615,0,256s114.615,256,256,256c3.452,0,6.883-0.089,10.302-0.225C129.696,506.367,20.604,393.933,20.604,256z"/>
<circle style="fill:#FFFFFF;" cx="256" cy="256" r="207.406"/>
<path style="fill:#E3E6E8;" d="M89.797,256c0-107.596,81.931-196.051,186.808-206.394c-6.778-0.669-13.65-1.017-20.604-1.017
	c-114.55,0-207.41,92.862-207.41,207.41S141.45,463.411,256,463.411c6.954,0,13.826-0.349,20.604-1.018
	C171.727,452.05,89.797,363.596,89.797,256z"/>
<g>
	<path style="fill:#EC8094;" d="M256,48.59c-2.588,0-5.161,0.064-7.726,0.158v64.283c0,4.267,3.459,7.726,7.726,7.726
		c4.267,0,7.726-3.459,7.726-7.726V48.747C261.161,48.653,258.588,48.59,256,48.59z"/>
	<path style="fill:#EC8094;" d="M348.634,70.39l-25.672,46.973c-2.047,3.745-0.67,8.438,3.074,10.485
		c1.176,0.643,2.447,0.948,3.698,0.948c2.734,0,5.384-1.455,6.787-4.023l25.666-46.963C357.774,75.174,353.252,72.7,348.634,70.39z"
		/>
	<path style="fill:#EC8094;" d="M426.277,137.565l-45.031,28.893c-3.591,2.305-4.635,7.084-2.33,10.676
		c1.476,2.3,3.966,3.555,6.51,3.555c1.429,0,2.874-0.396,4.165-1.225l45.043-28.901
		C432.005,146.121,429.218,141.786,426.277,137.565z"/>
	<path style="fill:#EC8094;" d="M336.522,387.227c-2.046-3.745-6.74-5.122-10.485-3.074c-3.745,2.046-5.121,6.74-3.074,10.485
		l25.671,46.973c4.618-2.31,9.14-4.785,13.553-7.421L336.522,387.227z"/>
	<path style="fill:#EC8094;" d="M434.633,361.436l-45.043-28.901c-3.592-2.305-8.371-1.262-10.676,2.33
		c-2.305,3.591-1.261,8.371,2.33,10.676l45.031,28.893C429.218,370.214,432.005,365.878,434.633,361.436z"/>
	<path style="fill:#EC8094;" d="M175.478,124.773c1.403,2.568,4.053,4.023,6.787,4.023c1.252,0,2.522-0.305,3.698-0.948
		c3.745-2.047,5.121-6.74,3.074-10.485L163.366,70.39c-4.618,2.31-9.14,4.785-13.553,7.421L175.478,124.773z"/>
	<path style="fill:#EC8094;" d="M130.755,166.459l-45.031-28.893c-2.941,4.221-5.729,8.557-8.356,12.998l45.043,28.901
		c1.292,0.828,2.737,1.225,4.165,1.225c2.544,0,5.035-1.255,6.51-3.555C135.389,173.542,134.346,168.763,130.755,166.459z"/>
	<path style="fill:#EC8094;" d="M185.963,384.151c-3.745-2.047-8.438-0.67-10.485,3.074l-25.666,46.963
		c4.414,2.636,8.935,5.112,13.553,7.421l25.671-46.973C191.084,390.892,189.708,386.198,185.963,384.151z"/>
	<path style="fill:#EC8094;" d="M122.409,332.536l-45.043,28.9c2.628,4.442,5.415,8.777,8.357,12.999l45.031-28.893
		c3.591-2.305,4.635-7.084,2.33-10.676C130.779,331.274,125.999,330.231,122.409,332.536z"/>
	<path style="fill:#EC8094;" d="M463.41,256c0-2.588-0.064-5.161-0.158-7.726H398.97c-4.267,0-7.726,3.459-7.726,7.726
		c0,4.267,3.459,7.726,7.726,7.726h64.283C463.347,261.161,463.41,258.588,463.41,256z"/>
	<path style="fill:#EC8094;" d="M256,391.243c-4.267,0-7.726,3.459-7.726,7.726v64.283c2.565,0.094,5.139,0.158,7.726,0.158
		c2.588,0,5.161-0.064,7.726-0.158V398.97C263.726,394.703,260.267,391.243,256,391.243z"/>
	<path style="fill:#EC8094;" d="M113.03,248.274H48.747c-0.094,2.565-0.158,5.139-0.158,7.726c0,2.588,0.064,5.161,0.158,7.726
		h64.283c4.267,0,7.726-3.459,7.726-7.726C120.757,251.733,117.297,248.274,113.03,248.274z"/>
	<path style="fill:#EC8094;" d="M344.544,248.274H259.2l-60.347-60.347c-3.017-3.017-7.91-3.017-10.926,0
		c-3.017,3.017-3.017,7.909,0,10.926l62.609,62.609c0.18,0.18,0.371,0.351,0.568,0.513c0.088,0.072,0.18,0.135,0.271,0.203
		c0.111,0.083,0.22,0.17,0.336,0.247c0.109,0.073,0.224,0.137,0.336,0.204c0.104,0.062,0.205,0.128,0.312,0.184
		c0.115,0.062,0.234,0.114,0.352,0.17c0.11,0.053,0.219,0.107,0.333,0.155c0.115,0.047,0.233,0.087,0.349,0.128
		c0.121,0.043,0.24,0.09,0.364,0.128c0.117,0.036,0.237,0.062,0.355,0.092c0.126,0.032,0.249,0.067,0.377,0.092
		c0.136,0.027,0.273,0.043,0.41,0.063c0.112,0.017,0.224,0.037,0.338,0.048c0.253,0.025,0.508,0.038,0.762,0.038h88.544
		c4.267,0,7.726-3.459,7.726-7.726C352.269,251.733,348.811,248.274,344.544,248.274z"/>
</g>
<path style="fill:#E7627B;" d="M228.087,217.16c-4.204,3.03-7.896,6.722-10.926,10.926l33.375,33.376
	c0.18,0.18,0.371,0.351,0.568,0.513c0.088,0.072,0.18,0.135,0.271,0.203c0.111,0.083,0.22,0.17,0.336,0.247
	c0.109,0.073,0.224,0.137,0.336,0.204c0.104,0.062,0.205,0.128,0.312,0.184c0.115,0.062,0.234,0.114,0.352,0.17
	c0.11,0.053,0.219,0.107,0.333,0.155c0.115,0.047,0.233,0.087,0.349,0.128c0.121,0.043,0.24,0.09,0.364,0.128
	c0.117,0.036,0.237,0.062,0.355,0.092c0.126,0.032,0.249,0.067,0.377,0.092c0.136,0.027,0.273,0.043,0.41,0.063
	c0.112,0.017,0.224,0.037,0.338,0.048c0.253,0.025,0.508,0.038,0.762,0.038h47.227c0.41-2.517,0.633-5.095,0.633-7.726
	c0-2.631-0.223-5.21-0.633-7.726h-44.027L228.087,217.16z"/>
<g>
	<circle style="fill:#5FBDFF;" cx="256" cy="256" r="22.105"/>
	<path style="fill:#5FBDFF;" d="M208.475,179.514l-26.691-4.071c-3.712-0.567-6.907,2.63-6.342,6.342l4.071,26.691
		c0.688,4.51,6.212,6.322,9.437,3.097l22.619-22.619C214.797,185.726,212.985,180.202,208.475,179.514z"/>
	<path style="fill:#5FBDFF;" d="M343.689,276.478l21.752-15.995c3.025-2.224,3.025-6.744,0-8.969l-21.752-15.995
		c-3.676-2.702-8.863-0.078-8.863,4.484v31.988C334.826,276.556,340.013,279.181,343.689,276.478z"/>
</g>
<g>
</g>
<g>
</g>
<g>
</g>
<g>
</g>
<g>
</g>
<g>
</g>
<g>
</g>
<g>
</g>
<g>
</g>
<g>
</g>
<g>
</g>
<g>
</g>
<g>
</g>
<g>
</g>
<g>
</g>
</svg>
