<?xml version="1.0" encoding="iso-8859-1"?>
<!-- Generator: Adobe Illustrator 19.0.0, SVG Export Plug-In . SVG Version: 6.00 Build 0)  -->
<svg version="1.1" id="Layer_1" xmlns="http://www.w3.org/2000/svg" xmlns:xlink="http://www.w3.org/1999/xlink" x="0px" y="0px"
	 viewBox="0 0 512.001 512.001" style="enable-background:new 0 0 512.001 512.001;" xml:space="preserve">
<path style="fill:#FF4F19;" d="M463.637,453.012h-69.605c-9.773,0-17.696-7.923-17.696-17.696V225.321
	c0-9.773,7.923-17.696,17.696-17.696h69.605c9.773,0,17.696,7.923,17.696,17.696v209.996
	C481.333,445.09,473.41,453.012,463.637,453.012z"/>
<path style="fill:#FF9900;" d="M491.951,184.029H20.05c-17.667,0-24.415-23.229-9.432-32.668L246.568,2.724
	c5.764-3.631,13.1-3.631,18.864,0l235.95,148.637C516.331,160.778,509.66,184.029,491.951,184.029z"/>
<path style="fill:#FF4F19;" d="M501.383,151.361L265.433,2.724C262.551,0.908,259.276,0,256.001,0v184.029h235.95
	C509.66,184.029,516.331,160.778,501.383,151.361z"/>
<path style="fill:#FF9900;" d="M291.393,453.012h-69.605c-9.773,0-17.696-7.923-17.696-17.696V225.321
	c0-9.773,7.923-17.696,17.696-17.696h69.605c9.773,0,17.696,7.923,17.696,17.696v209.996
	C309.089,445.09,301.166,453.012,291.393,453.012z"/>
<path style="fill:#FF4F19;" d="M291.393,207.624h-35.393v245.388h35.393c9.773,0,17.696-7.923,17.696-17.696V225.321
	C309.089,215.548,301.166,207.624,291.393,207.624z"/>
<path style="fill:#FF9900;" d="M117.97,453.012H48.364c-9.773,0-17.696-7.923-17.696-17.696V225.321
	c0-9.773,7.923-17.696,17.696-17.696h69.605c9.773,0,17.696,7.923,17.696,17.696v209.996
	C135.666,445.09,127.743,453.012,117.97,453.012z"/>
<g>
	<path style="fill:#FFDB2D;" d="M491.951,512H20.05c-12.949,0-21.533-13.5-16.012-25.231l27.758-58.988
		c2.919-6.202,9.157-10.161,16.012-10.161h416.382c6.854,0,13.093,3.959,16.012,10.161l27.758,58.988
		C513.476,498.485,504.916,512,491.951,512z"/>
	<path style="fill:#FFDB2D;" d="M464.191,243.017H47.81c-6.856,0-13.094-3.959-16.013-10.161L4.039,173.868
		c-5.513-11.716,3.046-25.231,16.012-25.231h471.9c12.949,0,21.533,13.5,16.012,25.231l-27.758,58.988
		C477.285,239.058,471.047,243.017,464.191,243.017z"/>
</g>
<g>
	<path style="fill:#FF9900;" d="M491.951,148.637h-235.95v94.38h208.191c6.856,0,13.094-3.959,16.013-10.161l27.758-58.988
		C513.484,162.137,504.9,148.637,491.951,148.637z"/>
	<path style="fill:#FF9900;" d="M507.962,486.77l-27.758-58.988c-2.919-6.202-9.157-10.161-16.012-10.161H256.001v94.38h235.95
		C504.916,512,513.476,498.485,507.962,486.77z"/>
</g>
<g>
</g>
<g>
</g>
<g>
</g>
<g>
</g>
<g>
</g>
<g>
</g>
<g>
</g>
<g>
</g>
<g>
</g>
<g>
</g>
<g>
</g>
<g>
</g>
<g>
</g>
<g>
</g>
<g>
</g>
</svg>
