<?xml version="1.0" encoding="iso-8859-1"?>
<!-- Generator: Adobe Illustrator 19.0.0, SVG Export Plug-In . SVG Version: 6.00 Build 0)  -->
<svg version="1.1" id="Layer_1" xmlns="http://www.w3.org/2000/svg" xmlns:xlink="http://www.w3.org/1999/xlink" x="0px" y="0px"
	 viewBox="0 0 512 512" style="enable-background:new 0 0 512 512;" xml:space="preserve">
<circle style="fill:#F1333F;" cx="256" cy="256" r="256"/>
<path style="fill:#AE283F;" d="M512,256c0-5.103-0.167-10.166-0.462-15.196L347.812,77.078L165.248,433.474l78.217,78.217
	c4.153,0.2,8.332,0.309,12.535,0.309C397.384,512,512,397.384,512,256z"/>
<path style="fill:#FFFFFF;" d="M295.414,439.132H179.698c-10.466,0-19.39-7.587-21.075-17.917l-31.042-190.371
	c-2.119-12.993,7.909-24.79,21.075-24.79h177.798c13.164,0,23.193,11.797,21.075,24.79l-31.042,190.371
	C314.802,431.545,305.879,439.132,295.414,439.132z"/>
<path style="fill:#FFD863;" d="M422.936,170.73l-65.334-66.479c-4.339-4.415-11.433-4.475-15.846-0.138
	c-4.415,4.337-4.475,11.431-0.138,15.846l26.955,27.426v80.17c0,6.189,5.017,11.205,11.205,11.205h28.444
	c0.891,0,1.755-0.116,2.586-0.312v143.784c0,7.363-5.799,13.352-12.929,13.352h-24.135c-7.13,0-12.929-5.991-12.929-13.352v-24.557
	c0-19.72-15.853-35.762-35.34-35.762c-6.189,0-11.205,5.017-11.205,11.205s5.017,11.205,11.205,11.205
	c7.13,0,12.929,5.991,12.929,13.352v24.557c0,19.72,15.853,35.762,35.34,35.762h24.135c19.487,0,35.34-16.043,35.34-35.762V195.948
	C433.219,186.434,429.568,177.476,422.936,170.73z"/>
<g>
	<path style="fill:#E0E0E0;" d="M326.454,206.055h-90.567v233.077h59.525c10.466,0,19.391-7.587,21.075-17.917l31.042-190.371
		C349.648,217.852,339.62,206.055,326.454,206.055z"/>
	<path style="fill:#E0E0E0;" d="M336.353,239.352H138.757c-9.799,0-17.741-7.944-17.741-17.741V90.608
		c0-9.799,7.944-17.741,17.741-17.741h197.594c9.799,0,17.741,7.944,17.741,17.741V221.61
		C354.094,231.408,346.152,239.352,336.353,239.352z"/>
</g>
<path style="fill:#C0C0C0;" d="M336.353,72.868H235.889v166.484h100.464c9.799,0,17.741-7.944,17.741-17.741V90.608
	C354.094,80.812,346.152,72.868,336.353,72.868z"/>
<path style="fill:#00BAFF;" d="M312.137,212.613H162.975c-8.963,0-16.227-7.265-16.227-16.227v-80.551
	c0-8.963,7.265-16.227,16.227-16.227h149.163c8.963,0,16.227,7.265,16.227,16.227v80.551
	C328.364,205.348,321.1,212.613,312.137,212.613z"/>
<path style="fill:#008CC3;" d="M312.137,99.606h-76.248v113.007h76.248c8.963,0,16.227-7.265,16.227-16.227v-80.551
	C328.364,106.872,321.1,99.606,312.137,99.606z"/>
<g>
</g>
<g>
</g>
<g>
</g>
<g>
</g>
<g>
</g>
<g>
</g>
<g>
</g>
<g>
</g>
<g>
</g>
<g>
</g>
<g>
</g>
<g>
</g>
<g>
</g>
<g>
</g>
<g>
</g>
</svg>
