<?xml version="1.0" encoding="iso-8859-1"?>
<!-- Generator: Adobe Illustrator 19.0.0, SVG Export Plug-In . SVG Version: 6.00 Build 0)  -->
<svg version="1.1" id="Capa_1" xmlns="http://www.w3.org/2000/svg" xmlns:xlink="http://www.w3.org/1999/xlink" x="0px" y="0px"
	 viewBox="0 0 512 512" style="enable-background:new 0 0 512 512;" xml:space="preserve">
<path style="fill:#23A24D;" d="M499.941,101.517H387.107H283.789H12.058C5.402,101.517,0,106.92,0,113.576v328.987
	c0,6.656,5.402,12.058,12.058,12.058h487.883c6.656,0,12.058-5.402,12.058-12.059V113.576
	C512,106.92,506.598,101.517,499.941,101.517z"/>
<path style="fill:#DD352E;" d="M388.414,113.876c0,31.206-52.966,84.745-52.966,84.745s-52.966-53.539-52.966-84.745
	s23.711-56.497,52.966-56.497S388.414,82.67,388.414,113.876z"/>
<path style="fill:#FFFFFF;" d="M344.276,128h-17.655c-4.873,0-8.828-3.955-8.828-8.828v-17.655c0-4.873,3.955-8.828,8.828-8.828
	h17.655c4.873,0,8.828,3.955,8.828,8.828v17.655C353.103,124.045,349.149,128,344.276,128z"/>
<path style="fill:#426D5F;" d="M350.04,182.563c-8.254,9.613-14.592,16.057-14.592,16.057s-6.338-6.444-14.592-16.057
	c-17.161,3.628-29.546,13.347-29.546,24.885c0,14.627,19.765,26.483,44.138,26.483s44.138-11.855,44.138-26.483
	C379.586,195.911,367.201,186.191,350.04,182.563z"/>
<polygon style="fill:#EBBA16;" points="167.724,278.069 167.724,101.517 114.759,101.517 114.759,163.31 0,163.31 0,216.276 
	114.759,216.276 114.759,339.862 0,339.862 0,392.828 114.759,392.828 114.759,454.621 167.724,454.621 167.724,331.034 
	335.448,331.034 335.448,454.621 388.414,454.621 388.414,331.034 512,331.034 512,278.069 "/>
<g>
</g>
<g>
</g>
<g>
</g>
<g>
</g>
<g>
</g>
<g>
</g>
<g>
</g>
<g>
</g>
<g>
</g>
<g>
</g>
<g>
</g>
<g>
</g>
<g>
</g>
<g>
</g>
<g>
</g>
</svg>
