<?xml version="1.0" encoding="iso-8859-1"?>
<!-- Generator: Adobe Illustrator 19.0.0, SVG Export Plug-In . SVG Version: 6.00 Build 0)  -->
<svg version="1.1" id="Capa_1" xmlns="http://www.w3.org/2000/svg" xmlns:xlink="http://www.w3.org/1999/xlink" x="0px" y="0px"
	 viewBox="0 0 512 512" style="enable-background:new 0 0 512 512;" xml:space="preserve">
<g>
	<polygon style="fill:#366DB6;" points="388.414,0 256,61.793 123.586,0 0,61.793 0,512 123.586,450.207 256,512 388.414,450.207 
		512,512 512,61.793 	"/>
	<polygon style="fill:#366DB6;" points="0,61.793 0,512 123.586,450.207 123.586,0 	"/>
</g>
<g>
	<polygon style="fill:#1F436D;" points="256,61.793 256,512 123.586,450.207 123.586,0 	"/>
	<polygon style="fill:#1F436D;" points="512,61.793 512,512 388.414,450.207 388.414,0 	"/>
</g>
<polygon style="fill:#366DB6;" points="256,61.793 256,512 388.414,450.207 388.414,0 "/>
<path style="fill:#EBBA16;" d="M276.63,275.738h-41.26c-19.006,4.025-32.335,13.436-32.335,24.399
	c0,14.627,23.711,26.483,52.966,26.483s52.966-11.855,52.966-26.483C308.966,289.174,295.636,279.764,276.63,275.738z"/>
<path style="fill:#DD352E;" d="M353.103,130.648c0,62.402-97.103,169.49-97.103,169.49s-97.103-107.087-97.103-169.49
	S202.372,17.655,256,17.655S353.103,68.246,353.103,130.648z"/>
<circle style="fill:#FFFFFF;" cx="256" cy="132.41" r="52.966"/>
<g>
</g>
<g>
</g>
<g>
</g>
<g>
</g>
<g>
</g>
<g>
</g>
<g>
</g>
<g>
</g>
<g>
</g>
<g>
</g>
<g>
</g>
<g>
</g>
<g>
</g>
<g>
</g>
<g>
</g>
</svg>
