<?xml version="1.0" encoding="iso-8859-1"?>
<!-- Generator: Adobe Illustrator 19.0.0, SVG Export Plug-In . SVG Version: 6.00 Build 0)  -->
<svg version="1.1" id="Capa_1" xmlns="http://www.w3.org/2000/svg" xmlns:xlink="http://www.w3.org/1999/xlink" x="0px" y="0px"
	 viewBox="0 0 512 512" style="enable-background:new 0 0 512 512;" xml:space="preserve">
<path style="fill:#66BD21;" d="M256,497C123.666,497,15,388.334,15,256S123.666,15,256,15s241,108.666,241,241S388.334,497,256,497z
	"/>
<path style="fill:#5DAD1D;" d="M497,256c0-132.334-108.666-241-241-241v482C388.334,497,497,388.334,497,256z"/>
<path style="fill:#7986E8;" d="M256,15v241h241C497,123.666,388.334,15,256,15z"/>
<path style="fill:#E1E4FB;" d="M123.695,229.12l-29.414-5.947C109.809,146.591,177.821,91,256,91
	c40.444,0,79.38,14.839,109.614,41.763l-19.951,22.412C320.922,133.129,289.076,121,256,121
	C192.03,121,136.381,166.469,123.695,229.12z"/>
<path style="fill:#C5C9F7;" d="M345.663,155.175l19.951-22.412C335.38,105.839,296.444,91,256,91v30
	C289.076,121,320.922,133.129,345.663,155.175z"/>
<path style="fill:#E1E4FB;" d="M256,421c-78.179,0-146.191-55.591-161.719-132.173l29.414-5.947C136.381,345.531,192.03,391,256,391
	c74.443,0,135-60.557,135-135c0-20.244-4.395-39.712-13.037-57.847l27.07-12.92C415.624,207.44,421,231.244,421,256
	C421,346.981,346.981,421,256,421z"/>
<path style="fill:#C5C9F7;" d="M421,256c0-24.756-5.376-48.56-15.967-70.767l-27.07,12.92C386.605,216.288,391,235.756,391,256
	c0,74.443-60.557,135-135,135v30C346.981,421,421,346.981,421,256z"/>
<path style="fill:#FF3333;" d="M106,301c-24.814,0-45-20.186-45-45s20.186-45,45-45s45,20.186,45,45S130.814,301,106,301z"/>
<path style="fill:#CC0202;" d="M376,211c-24.814,0-45-20.186-45-45s20.186-45,45-45s45,20.186,45,45S400.814,211,376,211z"/>
<path style="fill:#E1E4FB;" d="M256,331c-41.353,0-75-33.647-75-75s33.647-75,75-75s75,33.647,75,75S297.353,331,256,331z M256,211
	c-24.814,0-45,20.186-45,45s20.186,45,45,45s45-20.186,45-45S280.814,211,256,211z"/>
<path style="fill:#C5C9F7;" d="M301,256c0,24.814-20.186,45-45,45v30c41.353,0,75-33.647,75-75s-33.647-75-75-75v30
	C280.814,211,301,231.186,301,256z"/>
<path style="fill:#E1E4FB;" d="M512,256c0,5.099,0,9.901-0.601,15C509,314.5,494.2,356.8,470.5,393.701L445.3,377.5
	c20.7-32.1,33.701-68.699,36.099-106.5c0.3-5.099,0.601-9.901,0.601-15c0-124.2-101.8-226-226-226c-5.099,0-9.901,0.3-15,0.901
	c-117.299,7.2-211,106-211,225.099c0,124.2,101.8,226,226,226c57.299,0,111.899-22.599,153.6-61.601l20.7,21.901
	C382.899,486.7,320.799,512,256,512C115.3,512,0,396.7,0,256C0,120.399,107.199,8.101,241,0.3C246.099,0,250.901,0,256,0
	C396.7,0,512,115.3,512,256z"/>
<g>
	<path style="fill:#C5C9F7;" d="M482,256c0,5.099-0.3,9.901-0.601,15C479.001,308.8,466,345.399,445.3,377.5l25.201,16.201
		C494.2,356.8,509.001,314.5,511.399,271C512,265.901,512,261.099,512,256C512,115.3,396.7,0,256,0v30C380.2,30,482,131.8,482,256z"
		/>
	<path style="fill:#C5C9F7;" d="M409.6,420.399C367.899,459.401,313.299,482,256,482v30c64.799,0,126.899-25.3,174.3-69.699
		L409.6,420.399z"/>
</g>
<path style="fill:#CC0202;" d="M436,451c-24.814,0-45-20.186-45-45s20.186-45,45-45s45,20.186,45,45S460.814,451,436,451z"/>
<g>
</g>
<g>
</g>
<g>
</g>
<g>
</g>
<g>
</g>
<g>
</g>
<g>
</g>
<g>
</g>
<g>
</g>
<g>
</g>
<g>
</g>
<g>
</g>
<g>
</g>
<g>
</g>
<g>
</g>
</svg>
