<?xml version="1.0" encoding="iso-8859-1"?>
<!-- Generator: Adobe Illustrator 19.0.0, SVG Export Plug-In . SVG Version: 6.00 Build 0)  -->
<svg version="1.1" id="Capa_1" xmlns="http://www.w3.org/2000/svg" xmlns:xlink="http://www.w3.org/1999/xlink" x="0px" y="0px"
	 viewBox="0 0 512 512" style="enable-background:new 0 0 512 512;" xml:space="preserve">
<path style="fill:#555A66;" d="M390,316c0,32.999-27.001,60-60,60H180c-16.5,0-30,13.5-30,30s13.5,30,30,30h45
	c8.401,0,15,6.599,15,15c0,8.399-6.599,15-15,15h-45c-32.999,0-60-27.001-60-60c0-33.001,27.001-60,60-60h150c16.5,0,30-13.5,30-30
	s-13.5-30-30-30h-45c-8.401,0-15-6.601-15-15c0-8.401,6.599-15,15-15h45C362.999,256,390,282.999,390,316z"/>
<path style="fill:#383838;" d="M390,316c0,32.999-27.001,60-60,60h-75v-30h75c16.5,0,30-13.5,30-30s-13.5-30-30-30h-45
	c-8.401,0-15-6.601-15-15c0-8.401,6.599-15,15-15h45C362.999,256,390,282.999,390,316z"/>
<path style="fill:#555A66;" d="M105,286h150c8.284,0,15-6.716,15-15l0,0c0-8.284-6.716-15-15-15H105V286z"/>
<path style="fill:#383838;" d="M437,466H285c-8.291,0-15-6.709-15-15s6.709-15,15-15h152c8.291,0,15,6.709,15,15
	S445.291,466,437,466z"/>
<g>
	<path style="fill:#69A8FF;" d="M255,226c-24.901,0-45,20.099-45,45c0,24.899,20.099,45,45,45s45-20.101,45-45
		C300,246.099,279.901,226,255,226z"/>
	<path style="fill:#69A8FF;" d="M255,406c-24.901,0-45,20.099-45,45c0,24.899,20.099,45,45,45s45-20.101,45-45
		C300,426.099,279.901,406,255,406z"/>
</g>
<path style="fill:#3389FF;" d="M467,496c-24.814,0-45-20.186-45-45s20.186-45,45-45s45,20.186,45,45S491.814,496,467,496z"/>
<path style="fill:#FF2121;" d="M105,16C47.1,16,0,63.1,0,121c0,22.8,7.2,44.7,21,62.999l71.999,96c2.1,2.701,7.5,6,12.001,6
	s9.901-3.3,12.001-6l71.999-96C202.8,165.7,210,143.8,210,121C210,63.1,162.9,16,105,16z M105,166c-24.901,0-45-20.099-45-45
	s20.099-45,45-45s45,20.099,45,45S129.901,166,105,166z"/>
<path style="fill:#B80000;" d="M210,121c0,22.8-7.2,44.7-21,62.999l-71.999,96c-2.1,2.701-7.5,6-12.001,6V166
	c24.901,0,45-20.099,45-45s-20.099-45-45-45V16C162.9,16,210,63.1,210,121z"/>
<g>
	<path style="fill:#3389FF;" d="M300,451c0,24.899-20.099,45-45,45v-90C279.901,406,300,426.099,300,451z"/>
	<path style="fill:#3389FF;" d="M255,316v-90c24.901,0,45,20.099,45,45C300,295.899,279.901,316,255,316z"/>
</g>
<g>
</g>
<g>
</g>
<g>
</g>
<g>
</g>
<g>
</g>
<g>
</g>
<g>
</g>
<g>
</g>
<g>
</g>
<g>
</g>
<g>
</g>
<g>
</g>
<g>
</g>
<g>
</g>
<g>
</g>
</svg>
