<?xml version="1.0" encoding="iso-8859-1"?>
<!-- Generator: Adobe Illustrator 19.0.0, SVG Export Plug-In . SVG Version: 6.00 Build 0)  -->
<svg version="1.1" id="Capa_1" xmlns="http://www.w3.org/2000/svg" xmlns:xlink="http://www.w3.org/1999/xlink" x="0px" y="0px"
	 viewBox="0 0 512 512" style="enable-background:new 0 0 512 512;" xml:space="preserve">
<circle style="fill:#005ECE;" cx="256" cy="256" r="256"/>
<path style="fill:#00479B;" d="M512,256c0-12.19-0.871-24.175-2.52-35.911L378.435,89.043H256H133.565v311.652h-33.391v22.261
	l76.494,76.494C201.647,507.585,228.306,512,256,512C397.384,512,512,397.384,512,256z"/>
<rect x="133.565" y="89.043" style="fill:#FFFFFF;" width="244.87" height="322.783"/>
<rect x="256" y="89.043" style="fill:#D8D7DA;" width="122.435" height="322.783"/>
<g>
	<rect x="222.609" y="322.783" style="fill:#57A4FF;" width="66.783" height="89.043"/>
	<rect x="233.739" y="256" style="fill:#57A4FF;" width="44.522" height="44.522"/>
	<rect x="155.826" y="322.783" style="fill:#57A4FF;" width="44.522" height="44.522"/>
	<rect x="155.826" y="256" style="fill:#57A4FF;" width="44.522" height="44.522"/>
	<rect x="233.739" y="189.217" style="fill:#57A4FF;" width="44.522" height="44.522"/>
	<rect x="155.826" y="189.217" style="fill:#57A4FF;" width="44.522" height="44.522"/>
	<rect x="233.739" y="122.435" style="fill:#57A4FF;" width="44.522" height="44.522"/>
	<rect x="155.826" y="122.435" style="fill:#57A4FF;" width="44.522" height="44.522"/>
</g>
<g>
	<rect x="311.652" y="322.783" style="fill:#2488FF;" width="44.522" height="44.522"/>
	<rect x="311.652" y="256" style="fill:#2488FF;" width="44.522" height="44.522"/>
	<rect x="311.652" y="189.217" style="fill:#2488FF;" width="44.522" height="44.522"/>
	<rect x="311.652" y="122.435" style="fill:#2488FF;" width="44.522" height="44.522"/>
	<rect x="256" y="322.783" style="fill:#2488FF;" width="33.391" height="89.043"/>
	<rect x="256" y="256" style="fill:#2488FF;" width="22.261" height="44.522"/>
	<rect x="256" y="189.217" style="fill:#2488FF;" width="22.261" height="44.522"/>
	<rect x="256" y="122.435" style="fill:#2488FF;" width="22.261" height="44.522"/>
</g>
<rect x="100.174" y="400.696" style="fill:#FFDA44;" width="311.652" height="22.261"/>
<rect x="256" y="400.696" style="fill:#FFA733;" width="155.826" height="22.261"/>
<g>
</g>
<g>
</g>
<g>
</g>
<g>
</g>
<g>
</g>
<g>
</g>
<g>
</g>
<g>
</g>
<g>
</g>
<g>
</g>
<g>
</g>
<g>
</g>
<g>
</g>
<g>
</g>
<g>
</g>
</svg>
