<?xml version="1.0" encoding="iso-8859-1"?>
<!-- Generator: Adobe Illustrator 19.0.0, SVG Export Plug-In . SVG Version: 6.00 Build 0)  -->
<svg version="1.1" id="Capa_1" xmlns="http://www.w3.org/2000/svg" xmlns:xlink="http://www.w3.org/1999/xlink" x="0px" y="0px"
	 viewBox="0 0 512 512" style="enable-background:new 0 0 512 512;" xml:space="preserve">
<circle style="fill:#34D6C1;" cx="136.453" cy="286.502" r="136.453"/>
<path style="fill:#1AC4AE;" d="M272.903,286.499c0,75.366-61.087,136.453-136.453,136.453c-4.943,0-9.833-0.258-14.641-0.775
	c68.47-7.31,121.803-65.265,121.803-135.678c0-70.403-53.332-128.368-121.803-135.678c4.808-0.517,9.699-0.775,14.641-0.775
	C211.817,150.045,272.903,211.143,272.903,286.499z"/>
<rect x="363.335" y="153.689" transform="matrix(-0.7071 -0.7071 0.7071 -0.7071 619.2617 593.1234)" style="fill:#34D6C1;" width="138.272" height="29.239"/>
<polygon style="fill:#1AC4AE;" points="491.703,206.862 471.023,227.542 450.656,207.173 472.098,187.258 "/>
<path style="fill:#5C6D7D;" d="M491.487,207.102l-97.695-97.695l4.984-4.984c20.504-20.504,53.749-20.504,74.254,0l23.441,23.441
	c20.504,20.504,20.504,53.749,0,74.253L491.487,207.102z"/>
<path style="fill:#53616D;" d="M495.249,203.333l-3.76,3.771l-19.618-19.617l4.383-3.989c21.179-21.179,22.074-53.773,0.895-74.952
	l18.1,18.1C516.997,148.699,518.164,181.543,495.249,203.333z"/>
<rect x="264.376" y="141.936" transform="matrix(-0.7071 -0.7071 0.7071 -0.7071 380.3535 692.0869)" style="fill:#FFD071;" width="138.272" height="250.667"/>
<g>
	<polygon style="fill:#F7B657;" points="471.023,227.542 293.78,404.796 273.409,384.421 450.657,207.172 	"/>
	<polygon style="fill:#F7B657;" points="451.885,208.393 451.885,208.403 373.251,129.769 	"/>
</g>
<g>
	
		<rect x="301.117" y="122.793" transform="matrix(-0.7071 -0.7071 0.7071 -0.7071 361.2069 645.8705)" style="fill:#FF6E5E;" width="26.501" height="250.667"/>
	
		<rect x="339.409" y="161.081" transform="matrix(-0.7071 -0.7071 0.7071 -0.7071 399.5021 738.3083)" style="fill:#FF6E5E;" width="26.501" height="250.667"/>
</g>
<polygon style="fill:#E6EAEE;" points="196.003,307.015 187.135,413.66 293.78,404.792 "/>
<polygon style="fill:#CDD3D9;" points="293.78,404.796 187.135,413.657 188.387,398.643 280.008,391.024 "/>
<polygon style="fill:#5C6D7D;" points="191.569,360.338 240.457,409.226 187.135,413.66 "/>
<g>
</g>
<g>
</g>
<g>
</g>
<g>
</g>
<g>
</g>
<g>
</g>
<g>
</g>
<g>
</g>
<g>
</g>
<g>
</g>
<g>
</g>
<g>
</g>
<g>
</g>
<g>
</g>
<g>
</g>
</svg>
