<?xml version="1.0"?>
<svg xmlns="http://www.w3.org/2000/svg" xmlns:xlink="http://www.w3.org/1999/xlink" version="1.1" id="Layer_1" x="0px" y="0px" width="512px" height="512px" viewBox="0 0 128 128" style="enable-background:new 0 0 128 128;" xml:space="preserve" class=""><g><g>
	<circle style="fill:#FFC900" cx="64" cy="64" r="64" data-original="#88C5CC" class="active-path" data-old_color="#FFBA00"/>
	<g>
		<polygon style="fill:#CC584C;" points="66.275,72 68,62 48,62 46.276,72   " data-original="#CC584C"/>
		<path style="fill:#406A80;" d="M89,56c0,3.3-2.7,6-6,6H37c-3.3,0-6-2.7-6-6V38c0-3.3,2.7-6,6-6h46c3.3,0,6,2.7,6,6V56z" data-original="#406A80"/>
		<path style="fill:#395F73;" d="M83,32h-5c3.3,0,6,2.7,6,6v18c0,3.3-2.7,6-6,6h5c3.3,0,6-2.7,6-6V38C89,34.7,86.3,32,83,32z" data-original="#395F73"/>
		<rect x="89" y="39" style="fill:#CCCCCC;" width="6" height="16" data-original="#CCCCCC"/>
		<polygon style="fill:#B3B3B3;" points="101,51 95,55 95,39 101,43   " data-original="#B3B3B3"/>
		<path style="fill:#F5F5F5;" d="M117,46h-16v4h16c1.104,0,2-0.896,2-2S118.104,46,117,46z" data-original="#F5F5F5"/>
		<g>
			<path style="fill:#91D2F2;" d="M117.964,46.258C117.677,46.1,117.352,46,117,46h-3.607l-9.58,4h5.19L117.964,46.258z" data-original="#91D2F2"/>
			<path style="fill:#91D2F2;" d="M119,48c0-0.055-0.012-0.105-0.016-0.159L113.813,50H117C118.104,50,119,49.104,119,48z" data-original="#91D2F2"/>
			<polygon style="fill:#91D2F2;" points="101,46.999 101,49.166 108.583,46 103.393,46    " data-original="#91D2F2"/>
		</g>
		<g>
			<polygon style="fill:#406A80;" points="95,41 94,40 95,39    " data-original="#406A80"/>
			<polygon style="fill:#406A80;" points="95,43 94,42 95,41    " data-original="#406A80"/>
			<polygon style="fill:#406A80;" points="95,45 94,44 95,43    " data-original="#406A80"/>
			<polygon style="fill:#406A80;" points="95,47 94,46 95,45    " data-original="#406A80"/>
			<polygon style="fill:#406A80;" points="95,49 94,48 95,47    " data-original="#406A80"/>
			<polygon style="fill:#406A80;" points="95,51 94,50 95,49    " data-original="#406A80"/>
			<polygon style="fill:#406A80;" points="95,53 94,52 95,51    " data-original="#406A80"/>
			<polygon style="fill:#406A80;" points="95,55 94,54 95,53    " data-original="#406A80"/>
		</g>
		<path style="fill:#263740;" d="M52,41h-9c-0.552,0-1-0.447-1-1s0.448-1,1-1h9c0.552,0,1,0.447,1,1S52.552,41,52,41z" data-original="#263740"/>
		<path style="fill:#263740;" d="M52,44h-9c-0.552,0-1-0.447-1-1s0.448-1,1-1h9c0.552,0,1,0.447,1,1S52.552,44,52,44z" data-original="#263740"/>
		<path style="fill:#263740;" d="M52,47h-9c-0.552,0-1-0.447-1-1s0.448-1,1-1h9c0.552,0,1,0.447,1,1S52.552,47,52,47z" data-original="#263740"/>
		<path style="fill:#263740;" d="M52,50h-9c-0.552,0-1-0.447-1-1s0.448-1,1-1h9c0.552,0,1,0.447,1,1S52.552,50,52,50z" data-original="#263740"/>
		<polygon style="fill:#406A80;" points="58,91 38,91 43,62 63,62   " data-original="#406A80"/>
		<path style="fill:#406A80;" d="M65,104c0,3.3-2.7,6-6,6H37c-3.3,0-6-2.7-6-6v-7c0-3.3,2.7-6,6-6h22c3.3,0,6,2.7,6,6V104z" data-original="#406A80"/>
		<path style="fill:#395F73;" d="M59,91h-4c3.3,0,6,2.7,6,6v7c0,3.3-2.7,6-6,6h4c3.3,0,6-2.7,6-6v-7C65,93.7,62.3,91,59,91z" data-original="#395F73"/>
		<rect x="31" y="97" style="fill:#C2E2F2;" width="34" height="1" data-original="#C2E2F2"/>
		<path style="fill:#C2E2F2;" d="M53,98c0,1.104-0.896,2-2,2h-6c-1.104,0-2-0.896-2-2v-1c0-1.104,0.896-2,2-2h6c1.104,0,2,0.896,2,2    V98z" data-original="#C2E2F2"/>
		<polygon style="fill:#395F73;" points="38.345,89 38,91 58,91 58.345,89   " data-original="#395F73"/>
		<polygon style="fill:#395F73;" points="62.655,64 63,62 43,62 42.655,64   " data-original="#395F73"/>
	</g>
</g></g> </svg>
